<mxfile host="65bd71144e">
    <diagram name="Page-1" id="hierarchy-diagram">
        <mxGraphModel dx="1060" dy="703" grid="1" gridSize="10" guides="1" tooltips="1" connect="1" arrows="1" fold="1" page="1" pageScale="1" pageWidth="1100" pageHeight="850" background="none" math="0" shadow="0">
            <root>
                <mxCell id="0"/>
                <mxCell id="1" parent="0"/>
                <mxCell id="19" value="" style="group;sketch=1;curveFitting=1;jiggle=2;" parent="1" vertex="1" connectable="0">
                    <mxGeometry x="238" y="80" width="625" height="1340" as="geometry"/>
                </mxCell>
                <mxCell id="title" value="&lt;span style=&quot;font-weight: normal;&quot;&gt;Internal Queue Hierarchy&lt;/span&gt;" style="text;html=1;align=center;verticalAlign=middle;whiteSpace=wrap;rounded=0;fontSize=24;fontStyle=1;shadow=0;glass=0;sketch=1;curveFitting=1;jiggle=2;" parent="19" vertex="1">
                    <mxGeometry x="157.5" y="50" width="310" height="100" as="geometry"/>
                </mxCell>
                <mxCell id="17" value="" style="group" parent="19" vertex="1" connectable="0">
                    <mxGeometry y="230" width="625" height="1110" as="geometry"/>
                </mxCell>
                <mxCell id="IAcknowledgeable" value="&lt;b&gt;&lt;font style=&quot;font-size: 14px;&quot;&gt;« interface »&lt;/font&gt;&lt;/b&gt;&lt;br&gt;&lt;b&gt;&lt;font style=&quot;font-size: 16px;&quot;&gt;IAcknowledgeable&lt;/font&gt;&lt;/b&gt;&lt;hr&gt;+ Acknowledge(ackID string): bool&lt;br&gt;+ PrepareForFutureAck(ackID string, item any): error" style="rounded=1;whiteSpace=wrap;html=1;fillColor=#fad9d5;strokeColor=#ae4132;shadow=0;sketch=1;glass=0;fontSize=12;fontFamily=Helvetica;curveFitting=1;jiggle=2;fillStyle=dashed;strokeWidth=1;" parent="17" vertex="1">
                    <mxGeometry x="175" y="420" width="280" height="100" as="geometry"/>
                </mxCell>
                <mxCell id="ISubscribable" value="&lt;b&gt;&lt;font style=&quot;font-size: 14px;&quot;&gt;« interface »&lt;/font&gt;&lt;/b&gt;&lt;br&gt;&lt;b&gt;&lt;font style=&quot;font-size: 16px;&quot;&gt;ISubscribable&lt;/font&gt;&lt;/b&gt;&lt;hr&gt;+ Subscribe(func(action string, data []byte))" style="rounded=1;whiteSpace=wrap;html=1;fillColor=#ffe6cc;strokeColor=#d79b00;shadow=0;sketch=1;glass=0;fontSize=12;fontFamily=Helvetica;curveFitting=1;jiggle=2;" parent="17" vertex="1">
                    <mxGeometry x="182" y="810" width="260" height="100" as="geometry"/>
                </mxCell>
                <mxCell id="IWorkerQueue" value="&lt;b&gt;&lt;font style=&quot;font-size: 14px;&quot;&gt;« interface »&lt;/font&gt;&lt;/b&gt;&lt;br&gt;&lt;b&gt;&lt;font style=&quot;font-size: 16px;&quot;&gt;IWorkerQueue&lt;/font&gt;&lt;/b&gt;&lt;hr&gt;+ Len(): int&lt;br&gt;+ Dequeue(): (any, bool)&lt;br&gt;+ Values(): []any&lt;br&gt;+ Purge()&lt;br&gt;+ Close(): error" style="rounded=1;whiteSpace=wrap;html=1;fillColor=#f8cecc;strokeColor=#b85450;shadow=0;sketch=1;glass=0;fontSize=12;fontFamily=Helvetica;curveFitting=1;jiggle=2;fillStyle=dashed;strokeWidth=2;" parent="17" vertex="1">
                    <mxGeometry x="215" y="20" width="200" height="140" as="geometry"/>
                </mxCell>
                <mxCell id="IQueue" value="&lt;b&gt;&lt;font style=&quot;font-size: 14px;&quot;&gt;« interface »&lt;/font&gt;&lt;/b&gt;&lt;br&gt;&lt;b&gt;&lt;font style=&quot;font-size: 16px;&quot;&gt;IQueue&lt;/font&gt;&lt;/b&gt;&lt;hr&gt;+ Enqueue(item any): bool" style="rounded=1;whiteSpace=wrap;html=1;fillColor=#ffe6cc;strokeColor=#d79b00;shadow=0;sketch=1;glass=0;fontSize=12;fontFamily=Helvetica;curveFitting=1;jiggle=2;strokeWidth=1;fillStyle=dashed;" parent="17" vertex="1">
                    <mxGeometry x="5" y="270" width="230" height="90" as="geometry"/>
                </mxCell>
                <mxCell id="IPriorityQueue" value="&lt;b&gt;&lt;font style=&quot;font-size: 14px;&quot;&gt;« interface »&lt;/font&gt;&lt;/b&gt;&lt;br&gt;&lt;b&gt;&lt;font style=&quot;font-size: 16px;&quot;&gt;IPriorityQueue&lt;/font&gt;&lt;/b&gt;&lt;hr&gt;+ Enqueue(item any, priority int): bool" style="rounded=1;whiteSpace=wrap;html=1;fillColor=#ffe6cc;strokeColor=#d79b00;shadow=0;sketch=1;glass=0;fontSize=12;fontFamily=Helvetica;curveFitting=1;jiggle=2;fillStyle=dashed;strokeWidth=1;" parent="17" vertex="1">
                    <mxGeometry x="395" y="270" width="230" height="95" as="geometry"/>
                </mxCell>
                <mxCell id="edge2" value="" style="endArrow=block;html=1;rounded=0;exitX=0.5;exitY=0;exitDx=0;exitDy=0;endFill=0;strokeWidth=1;sketch=1;curveFitting=1;jiggle=2;entryX=0.5;entryY=1;entryDx=0;entryDy=0;" parent="17" source="IQueue" target="IWorkerQueue" edge="1">
                    <mxGeometry width="50" height="50" relative="1" as="geometry">
                        <mxPoint x="225" y="330" as="sourcePoint"/>
                        <mxPoint x="275" y="140" as="targetPoint"/>
                    </mxGeometry>
                </mxCell>
                <mxCell id="edge3" value="" style="endArrow=block;html=1;rounded=0;exitX=0.5;exitY=0;exitDx=0;exitDy=0;endFill=0;strokeWidth=1;sketch=1;curveFitting=1;jiggle=2;entryX=0.5;entryY=1;entryDx=0;entryDy=0;" parent="17" source="IPriorityQueue" target="IWorkerQueue" edge="1">
                    <mxGeometry width="50" height="50" relative="1" as="geometry">
                        <mxPoint x="515" y="330" as="sourcePoint"/>
                        <mxPoint x="375" y="140" as="targetPoint"/>
                    </mxGeometry>
                </mxCell>
                <mxCell id="3" style="edgeStyle=none;html=1;exitX=0.5;exitY=0;exitDx=0;exitDy=0;entryX=0.5;entryY=1;entryDx=0;entryDy=0;sketch=1;curveFitting=1;jiggle=2;" parent="17" source="IPersistentQueue" target="IAcknowledgeable" edge="1">
                    <mxGeometry relative="1" as="geometry">
                        <mxPoint x="265" y="590" as="targetPoint"/>
                    </mxGeometry>
                </mxCell>
                <mxCell id="5" style="edgeStyle=none;html=1;entryX=0.5;entryY=1;entryDx=0;entryDy=0;sketch=1;curveFitting=1;jiggle=2;" parent="17" source="IPersistentQueue" target="IQueue" edge="1">
                    <mxGeometry relative="1" as="geometry"/>
                </mxCell>
                <mxCell id="IPersistentQueue" value="&lt;b&gt;&lt;font style=&quot;font-size: 14px;&quot;&gt;« interface »&lt;/font&gt;&lt;/b&gt;&lt;br&gt;&lt;b&gt;&lt;font style=&quot;font-size: 16px;&quot;&gt;IPersistentQueue&lt;/font&gt;&lt;/b&gt;" style="rounded=1;whiteSpace=wrap;html=1;fillColor=#b0e3e6;strokeColor=#0e8088;shadow=1;sketch=1;glass=0;fontSize=12;fontFamily=Helvetica;curveFitting=1;jiggle=2;strokeWidth=1;fillStyle=dashed;" parent="17" vertex="1">
                    <mxGeometry x="10" y="650" width="220" height="70" as="geometry"/>
                </mxCell>
                <mxCell id="2" style="edgeStyle=none;html=1;entryX=0.5;entryY=1;entryDx=0;entryDy=0;exitX=0.5;exitY=0;exitDx=0;exitDy=0;strokeWidth=1;rounded=0;curved=1;sketch=1;curveFitting=1;jiggle=2;" parent="17" source="IPersistentPriorityQueue" target="IAcknowledgeable" edge="1">
                    <mxGeometry relative="1" as="geometry">
                        <mxPoint x="500" y="680" as="sourcePoint"/>
                        <mxPoint x="285" y="570" as="targetPoint"/>
                    </mxGeometry>
                </mxCell>
                <mxCell id="4" style="edgeStyle=none;html=1;entryX=0.5;entryY=1;entryDx=0;entryDy=0;sketch=1;curveFitting=1;jiggle=2;" parent="17" source="IPersistentPriorityQueue" target="IPriorityQueue" edge="1">
                    <mxGeometry relative="1" as="geometry"/>
                </mxCell>
                <mxCell id="IPersistentPriorityQueue" value="&lt;b&gt;&lt;font style=&quot;font-size: 14px;&quot;&gt;« interface »&lt;/font&gt;&lt;/b&gt;&lt;br&gt;&lt;b&gt;&lt;font style=&quot;font-size: 16px;&quot;&gt;IPersistentPriorityQueue&lt;/font&gt;&lt;/b&gt;" style="rounded=1;whiteSpace=wrap;html=1;fillColor=#b1ddf0;strokeColor=#10739e;shadow=0;sketch=1;glass=0;fontSize=12;fontFamily=Helvetica;curveFitting=1;jiggle=2;fillStyle=auto;strokeWidth=1;" parent="17" vertex="1">
                    <mxGeometry x="395" y="650" width="230" height="70" as="geometry"/>
                </mxCell>
                <mxCell id="10" style="edgeStyle=none;html=1;entryX=0.5;entryY=1;entryDx=0;entryDy=0;exitX=0.5;exitY=0;exitDx=0;exitDy=0;sketch=1;curveFitting=1;jiggle=2;" parent="17" source="IDistributedQueue" target="ISubscribable" edge="1">
                    <mxGeometry relative="1" as="geometry"/>
                </mxCell>
                <mxCell id="12" style="edgeStyle=none;html=1;entryX=0.5;entryY=1;entryDx=0;entryDy=0;sketch=1;curveFitting=1;jiggle=2;" parent="17" source="IDistributedQueue" target="IPersistentQueue" edge="1">
                    <mxGeometry relative="1" as="geometry"/>
                </mxCell>
                <mxCell id="IDistributedQueue" value="&lt;b&gt;&lt;font style=&quot;font-size: 14px;&quot;&gt;« interface »&lt;/font&gt;&lt;/b&gt;&lt;br&gt;&lt;b&gt;&lt;font style=&quot;font-size: 16px;&quot;&gt;IDistributedQueue&lt;/font&gt;&lt;/b&gt;" style="rounded=1;whiteSpace=wrap;html=1;fillColor=#d0cee2;strokeColor=#56517e;shadow=0;sketch=1;glass=0;fontSize=12;fontFamily=Helvetica;curveFitting=1;jiggle=2;" parent="17" vertex="1">
                    <mxGeometry y="1040" width="230" height="70" as="geometry"/>
                </mxCell>
                <mxCell id="9" style="edgeStyle=none;html=1;entryX=0.5;entryY=1;entryDx=0;entryDy=0;exitX=0.5;exitY=0;exitDx=0;exitDy=0;sketch=1;curveFitting=1;jiggle=2;" parent="17" source="IDistributedPriorityQueue" target="ISubscribable" edge="1">
                    <mxGeometry relative="1" as="geometry"/>
                </mxCell>
                <mxCell id="11" style="edgeStyle=none;html=1;entryX=0.5;entryY=1;entryDx=0;entryDy=0;sketch=1;curveFitting=1;jiggle=2;" parent="17" source="IDistributedPriorityQueue" target="IPersistentPriorityQueue" edge="1">
                    <mxGeometry relative="1" as="geometry"/>
                </mxCell>
                <mxCell id="IDistributedPriorityQueue" value="&lt;b&gt;&lt;font style=&quot;font-size: 14px;&quot;&gt;« interface »&lt;/font&gt;&lt;/b&gt;&lt;br&gt;&lt;b&gt;&lt;font style=&quot;font-size: 16px;&quot;&gt;IDistributedPriorityQueue&lt;/font&gt;&lt;/b&gt;" style="rounded=1;whiteSpace=wrap;html=1;fillColor=#bac8d3;strokeColor=#23445d;shadow=0;sketch=1;glass=0;fontSize=12;fontFamily=Helvetica;curveFitting=1;jiggle=2;" parent="17" vertex="1">
                    <mxGeometry x="395" y="1040" width="230" height="70" as="geometry"/>
                </mxCell>
                <mxCell id="extends3" value="extends" style="text;html=1;strokeColor=none;fillColor=none;align=center;verticalAlign=middle;whiteSpace=wrap;rounded=0;fontSize=12;" parent="17" vertex="1">
                    <mxGeometry x="283" y="180" width="60" height="20" as="geometry"/>
                </mxCell>
                <mxCell id="6" value="extends" style="text;html=1;strokeColor=none;fillColor=none;align=center;verticalAlign=middle;whiteSpace=wrap;rounded=0;fontSize=12;" parent="17" vertex="1">
                    <mxGeometry x="285" y="550" width="60" height="20" as="geometry"/>
                </mxCell>
                <mxCell id="7" value="extends" style="text;html=1;strokeColor=none;fillColor=none;align=center;verticalAlign=middle;whiteSpace=wrap;rounded=0;fontSize=12;" parent="17" vertex="1">
                    <mxGeometry x="45" y="470" width="60" height="20" as="geometry"/>
                </mxCell>
                <mxCell id="8" value="extends" style="text;html=1;strokeColor=none;fillColor=none;align=center;verticalAlign=middle;whiteSpace=wrap;rounded=0;fontSize=12;" parent="17" vertex="1">
                    <mxGeometry x="525" y="470" width="60" height="20" as="geometry"/>
                </mxCell>
                <mxCell id="14" value="extends" style="text;html=1;strokeColor=none;fillColor=none;align=center;verticalAlign=middle;whiteSpace=wrap;rounded=0;fontSize=12;" parent="17" vertex="1">
                    <mxGeometry x="282" y="930" width="60" height="20" as="geometry"/>
                </mxCell>
                <mxCell id="15" value="extends" style="text;html=1;strokeColor=none;fillColor=none;align=center;verticalAlign=middle;whiteSpace=wrap;rounded=0;fontSize=12;" parent="17" vertex="1">
                    <mxGeometry x="525" y="860" width="60" height="20" as="geometry"/>
                </mxCell>
                <mxCell id="16" value="extends" style="text;html=1;strokeColor=none;fillColor=none;align=center;verticalAlign=middle;whiteSpace=wrap;rounded=0;fontSize=12;" parent="17" vertex="1">
                    <mxGeometry x="35" y="860" width="60" height="20" as="geometry"/>
                </mxCell>
            </root>
        </mxGraphModel>
    </diagram>
</mxfile>
